<svg width="28" height="28" fill="none" xmlns="http://www.w3.org/2000/svg"><path d="M22.482 6.218A19.813 19.813 0 0 0 17.5 4.667a.105.105 0 0 0-.082.035c-.21.385-.455.886-.618 1.271a18.772 18.772 0 0 0-5.6 0 11.72 11.72 0 0 0-.63-1.271c-.012-.024-.047-.035-.082-.035-1.75.303-3.418.828-4.981 1.551-.012 0-.024.012-.035.024-3.174 4.748-4.049 9.368-3.617 13.941 0 .024.012.047.035.059a20.266 20.266 0 0 0 6.113 3.091c.035.012.07 0 .082-.023.467-.642.887-1.318 1.248-2.03.024-.047 0-.093-.046-.105a14.366 14.366 0 0 1-1.914-.91c-.046-.023-.046-.093-.011-.128.128-.094.256-.199.385-.292a.072.072 0 0 1 .081-.012c4.014 1.832 8.342 1.832 12.309 0a.072.072 0 0 1 .081.012c.129.105.257.198.385.303.047.035.047.105-.011.129a12.51 12.51 0 0 1-1.914.91c-.046.011-.058.07-.046.105.373.711.793 1.388 1.248 2.03.035.011.07.023.105.011a20.185 20.185 0 0 0 6.125-3.091.064.064 0 0 0 .035-.059c.513-5.285-.852-9.87-3.617-13.941-.011-.012-.023-.024-.046-.024zM9.94 17.395c-1.202 0-2.205-1.108-2.205-2.473 0-1.365.98-2.474 2.205-2.474 1.237 0 2.217 1.12 2.205 2.474 0 1.365-.98 2.473-2.205 2.473zm8.132 0c-1.202 0-2.205-1.108-2.205-2.473 0-1.365.98-2.474 2.205-2.474 1.236 0 2.216 1.12 2.205 2.474 0 1.365-.969 2.473-2.205 2.473z" fill="#fff"/></svg>