<svg width="24" height="24" fill="none" xmlns="http://www.w3.org/2000/svg"><path d="M12 .333C5.56.333.333 5.56.333 12 .333 18.44 5.56 23.667 12 23.667c6.44 0 11.667-5.227 11.667-11.667C23.667 5.56 18.44.333 12 .333zm5.413 7.934c-.175 1.843-.933 6.323-1.318 8.388-.163.875-.49 1.167-.793 1.202-.677.058-1.19-.444-1.844-.875-1.026-.677-1.61-1.097-2.601-1.75-1.155-.759-.409-1.179.256-1.855.175-.175 3.162-2.894 3.22-3.139a.233.233 0 0 0-.058-.21c-.07-.058-.163-.035-.245-.023-.105.023-1.738 1.108-4.923 3.255-.467.315-.887.478-1.26.467-.42-.012-1.214-.234-1.809-.432-.735-.233-1.306-.362-1.26-.77.024-.21.315-.42.864-.642 3.406-1.481 5.67-2.461 6.801-2.928 3.244-1.353 3.909-1.587 4.352-1.587.093 0 .315.024.455.14a.463.463 0 0 1 .163.315c-.011.07.012.28 0 .444z" fill="#fff"/></svg>