<svg width="24" height="24" fill="none" xmlns="http://www.w3.org/2000/svg"><g stroke="#fff" stroke-width="1.5" stroke-linecap="round" stroke-linejoin="round"><path d="M4.22 10.89v10M19.78 10.89v10M14.222 20.889v-4.444a2.222 2.222 0 0 0-4.444 0v4.444M2 20.89h20"/><path clip-rule="evenodd" d="M4.301 10.889c-1.698-.012-2.805-1.693-2.069-3.142L3.947 4.37c.391-.77 1.213-1.259 2.115-1.259h11.876c.902 0 1.724.489 2.115 1.259l1.716 3.377c.736 1.449-.37 3.13-2.069 3.142-1.417 0-2.566-.968-2.566-2.163v-.048c0 1.221-1.149 2.211-2.566 2.211-1.417 0-2.566-.99-2.566-2.211 0 1.221-1.149 2.211-2.566 2.211-1.417 0-2.566-.99-2.566-2.211v.048c-.003 1.195-1.152 2.163-2.569 2.163z"/></g></svg>