<svg width="24" height="24" fill="none" xmlns="http://www.w3.org/2000/svg"><path d="M18.503 18.567v1.936a.5.5 0 0 1-.854.353l-2.29-2.29M18.003 9.499h.504a2.498 2.498 0 0 1 2.497 2.497v4.073a2.497 2.497 0 0 1-2.497 2.498v0" stroke="#fff" stroke-width="1.5" stroke-linecap="round" stroke-linejoin="round"/><path d="M15.363 18.567h-2.867A2.498 2.498 0 0 1 10 16.069v-1.068" stroke="#fff" stroke-width="1.5" stroke-linecap="round" stroke-linejoin="round"/><path clip-rule="evenodd" d="M8.705 12 6.35 14.354A.5.5 0 0 1 5.497 14v-2h-.003a2.498 2.498 0 0 1-2.498-2.498V5.494a2.497 2.497 0 0 1 2.498-2.498h7.01A2.498 2.498 0 0 1 15 5.494v4.008A2.498 2.498 0 0 1 12.504 12h-3.8z" stroke="#fff" stroke-width="1.5" stroke-linecap="round" stroke-linejoin="round"/><path d="M6.998 5.998H10M6.998 8.999h1M15.001 15.001h2" stroke="#fff" stroke-width="1.5" stroke-linecap="round" stroke-linejoin="round"/></svg>