<svg width="24" height="24" viewBox="0 0 24 24" fill="none" xmlns="http://www.w3.org/2000/svg">
    <path d="M6.4978 2.49609L7.99843 3.99672L6.4978 5.49734" stroke="white" stroke-width="1.5" stroke-linecap="round" stroke-linejoin="round"/>
    <path d="M7.99842 3.99609H5.99759C4.34004 3.99609 2.99634 5.3398 2.99634 6.99734" stroke="white" stroke-width="1.5" stroke-linecap="round" stroke-linejoin="round"/>
    <path d="M17.5023 21.5032L16.0017 20.0026L17.5023 18.502" stroke="white" stroke-width="1.5" stroke-linecap="round" stroke-linejoin="round"/>
    <path d="M16.0017 20.0032H18.0025C19.6601 20.0032 21.0038 18.6595 21.0038 17.002" stroke="white" stroke-width="1.5" stroke-linecap="round" stroke-linejoin="round"/>
    <path d="M9.49912 20.0026C6.46029 20.0026 3.99683 17.5392 3.99683 14.5003C3.99683 11.4615 6.46029 8.99805 9.49912 8.99805C12.5379 8.99805 15.0014 11.4615 15.0014 14.5003C15.0014 15.9596 14.4217 17.3592 13.3898 18.391C12.3579 19.4229 10.9584 20.0026 9.49912 20.0026" stroke="white" stroke-width="1.5" stroke-linecap="round" stroke-linejoin="round"/>
    <path d="M8.68756 13.4794L9.49889 12.666V15.9153" stroke="white" stroke-width="1.5" stroke-linecap="round" stroke-linejoin="round"/>
    <path d="M8.6897 15.9162H10.3082" stroke="white" stroke-width="1.5" stroke-linecap="round" stroke-linejoin="round"/>
    <path d="M10.6104 5.66041C12.7591 3.51163 16.243 3.51163 18.3918 5.66041C20.5405 7.80919 20.5405 11.2931 18.3918 13.4418" stroke="white" stroke-width="1.5" stroke-linecap="round" stroke-linejoin="round"/>
</svg>
