<svg width="24" height="24" fill="none" xmlns="http://www.w3.org/2000/svg"><g clip-path="url(#a)"><rect width="24" height="24" rx="7.2" fill="#F46F51"/><path d="M9.238 15.803c-.135.216-.392.338-.569.38-.298.053-.582.08-.799.256-.068.055-.176.014-.19-.067a1.05 1.05 0 0 1 .15-.718.309.309 0 0 0-.15.04.127.127 0 0 1-.176-.135c.082-.298.285-.691.596-.867l-.514-.515-.095-.095c-1.003.217-1.626 1.41-1.843 2.222-.054.23.176.406.393.312a.734.734 0 0 1 .339-.082 2.447 2.447 0 0 0-.339 1.68c.04.204.285.298.447.163.515-.42 1.179-.46 1.87-.596.515-.109 1.341-.556 1.544-1.314a1.63 1.63 0 0 1-.162-.15l-.502-.514zM15.864 12.565c2.032-2.303 2.547-5.61 2.492-6.612a.39.39 0 0 0-.122-.27.457.457 0 0 0-.27-.123c-1.003-.054-4.309.447-6.612 2.493l-.732-.27a2.062 2.062 0 0 0-2.276.595L7.071 9.882a.404.404 0 0 0 .162.637l1.626.596a19.698 19.698 0 0 0-.948 1.761.772.772 0 0 0 .149.84l2.14 2.14a.744.744 0 0 0 .84.15c.407-.19 1.044-.501 1.762-.948l.596 1.625c.095.258.42.353.636.163l1.49-1.274c.651-.555.895-1.463.597-2.276l-.257-.731zm-.881-1.816a1.292 1.292 0 0 1-1.843 0 1.292 1.292 0 0 1 0-1.842 1.292 1.292 0 0 1 1.843 0 1.292 1.292 0 0 1 0 1.842z" fill="#000"/></g><defs><clipPath id="a"><path fill="#fff" d="M0 0h24v24H0z"/></clipPath></defs></svg>