<svg width="183" height="186" viewBox="0 0 183 186" fill="none" xmlns="http://www.w3.org/2000/svg">
<g id="Group" opacity="0.1">
<g id="Group_2">
<g id="Group_3">
<path id="Vector" d="M51.6984 147.213C49.7518 150.328 46.0534 152.079 43.5229 152.663C39.2406 153.442 35.1528 153.831 32.0384 156.362C31.0651 157.14 29.5079 156.557 29.3132 155.389C28.7293 151.69 29.7025 147.602 31.4544 145.072C30.6758 145.072 30.0918 145.267 29.3132 145.656C27.9507 146.24 26.5881 145.072 26.7827 143.709C27.9507 139.427 30.8705 133.782 35.3475 131.252L27.9507 123.855C27.5614 123.465 26.9774 122.881 26.5881 122.492C12.1837 125.607 3.22969 142.736 0.115238 154.415C-0.663375 157.724 2.64573 160.255 5.76018 158.892C7.31741 158.114 8.87464 157.724 10.6265 157.724C6.73345 163.564 4.20296 173.102 5.76018 181.861C6.34414 184.781 9.8479 186.144 12.1837 184.197C19.5806 178.163 29.1186 177.579 39.0459 175.633C46.4427 174.075 58.3166 167.652 61.2364 156.751C60.4578 156.167 59.6791 155.389 58.9005 154.61L51.6984 147.213Z" fill="#FFEEEE"/>
<path id="Vector_2" d="M146.885 100.691C176.083 67.6001 183.479 20.1047 182.701 5.70037C182.701 4.14314 181.922 2.78057 180.949 1.8073C179.976 0.834035 178.613 0.250075 177.056 0.0554213C162.652 -0.723192 115.156 6.47898 82.0651 35.8716L71.5538 31.9786C59.8746 27.6962 46.8328 31.1999 38.852 40.5433L20.5546 62.1498C18.0241 65.2643 19.1921 69.936 22.8905 71.2985L46.2489 79.8633C39.8253 90.3745 35.3483 99.5232 32.6231 105.168C30.8713 109.256 31.6499 113.928 34.7643 117.237L65.5196 147.992C68.634 151.106 73.5003 152.08 77.5881 150.133C83.4277 147.408 92.5764 142.931 102.893 136.507L111.458 159.866C112.82 163.564 117.492 164.927 120.606 162.202L142.018 143.904C151.362 135.923 154.865 122.882 150.583 111.202L146.885 100.691ZM134.232 74.6076C126.835 82.0045 115.156 82.0045 107.759 74.6076C100.362 67.2108 100.362 55.5316 107.759 48.1348C115.156 40.738 126.835 40.738 134.232 48.1348C141.629 55.5316 141.629 67.4055 134.232 74.6076Z" fill="#FFEEEE"/>
</g>
</g>
</g>
</svg>
