<svg width="32" height="32" fill="none" xmlns="http://www.w3.org/2000/svg"><path d="M28.005 13.332v9.337a5.336 5.336 0 0 1-5.336 5.336H9.331a5.336 5.336 0 0 1-5.336-5.336V9.331a5.336 5.336 0 0 1 5.336-5.336h8.003" stroke="#fff" stroke-width="1.5" stroke-linecap="round" stroke-linejoin="round"/><path d="m3.995 17.334 1.728-1.728a3.216 3.216 0 0 1 4.548 0L16 21.336M9.334 28.005l8.398-8.397a3.216 3.216 0 0 1 4.548 0l5.254 5.254M24.003 10.664l3.335-3.334M20.669 7.33l3.334 3.334M24.003 10.664V3.995" stroke="#fff" stroke-width="1.5" stroke-linecap="round" stroke-linejoin="round"/></svg>