<svg width="24" height="24" viewBox="0 0 24 24" fill="none" xmlns="http://www.w3.org/2000/svg">
    <path fill-rule="evenodd" clip-rule="evenodd" d="M6.826 11.5383C7.388 11.0773 8.208 11.1183 8.721 11.6323L9.589 12.4993V9.00129C9.589 7.63629 10.926 6.67229 12.221 7.10429L15.024 8.03829C15.841 8.31029 16.392 9.07529 16.392 9.93529V14.0333C16.392 15.9383 14.847 17.4833 12.942 17.4833H11.316C10.229 17.4833 9.206 16.9713 8.554 16.1013L6.59 13.4783C6.137 12.8723 6.241 12.0173 6.826 11.5383V11.5383V11.5383Z" stroke="#FB3D3D" stroke-width="1.5" stroke-linecap="round" stroke-linejoin="round"/>
    <path fill-rule="evenodd" clip-rule="evenodd" d="M7.415 20.415L3.586 16.586C3.211 16.211 3 15.702 3 15.171V8.828C3 8.298 3.211 7.789 3.585 7.415L7.414 3.586C7.789 3.211 8.298 3 8.828 3H15.17C15.701 3 16.21 3.211 16.585 3.586L20.413 7.414C20.789 7.79 21 8.3 21 8.831V15.171C21 15.701 20.789 16.209 20.415 16.584L16.586 20.414C16.211 20.789 15.702 21 15.171 21H8.828C8.298 21 7.789 20.789 7.415 20.415V20.415Z" stroke="#FB3D3D" stroke-width="1.5" stroke-linecap="round" stroke-linejoin="round"/>
</svg>
