<svg width="183" height="32" fill="none" xmlns="http://www.w3.org/2000/svg"><g clip-path="url(#a)"><rect width="32" height="32" rx="9.6" fill="#F46F51"/><path d="M12.318 21.07c-.18.29-.524.452-.759.506-.397.072-.776.108-1.066.343-.09.073-.234.018-.252-.09-.055-.343.036-.723.198-.957a.41.41 0 0 0-.198.054.17.17 0 0 1-.235-.18c.108-.398.38-.922.795-1.157l-.687-.686-.126-.127c-1.337.29-2.168 1.879-2.457 2.963-.072.307.235.542.524.415a.98.98 0 0 1 .451-.108c-.36.542-.596 1.427-.451 2.24a.37.37 0 0 0 .596.216c.686-.56 1.572-.614 2.493-.794.686-.145 1.788-.741 2.06-1.753a2.16 2.16 0 0 1-.218-.198l-.668-.687zM21.151 16.753c2.71-3.071 3.396-7.479 3.324-8.815a.52.52 0 0 0-.162-.362.61.61 0 0 0-.362-.162c-1.336-.073-5.744.596-8.815 3.324l-.975-.362a2.75 2.75 0 0 0-3.035.795l-1.698 2.005c-.235.29-.127.723.216.85l2.168.794a26.259 26.259 0 0 0-1.264 2.348c-.163.38-.09.813.198 1.12l2.855 2.854c.289.29.74.38 1.12.2.541-.254 1.39-.67 2.348-1.265l.795 2.167a.53.53 0 0 0 .849.217l1.987-1.698a2.75 2.75 0 0 0 .795-3.035l-.344-.975zm-1.174-2.42a1.723 1.723 0 0 1-2.457 0 1.723 1.723 0 0 1 0-2.457 1.723 1.723 0 0 1 2.457 0 1.723 1.723 0 0 1 0 2.456z" fill="#000"/></g><path d="M42.16 14.52c.52-1.36 1.78-1.92 3.04-1.92v2.88c-1.34-.16-3.04.44-3.04 2.54v4.78h-2.58v-10h2.58v1.72zm8.938 8.56c-2.94 0-5.28-2.3-5.28-5.28 0-2.98 2.34-5.28 5.28-5.28 2.94 0 5.3 2.3 5.3 5.28 0 2.98-2.36 5.28-5.3 5.28zm0-2.52c1.54 0 2.72-1.14 2.72-2.76 0-1.62-1.18-2.76-2.72-2.76-1.52 0-2.7 1.14-2.7 2.76 0 1.62 1.18 2.76 2.7 2.76zm11.875 2.52c-3.04 0-5.28-2.3-5.28-5.28 0-2.98 2.24-5.28 5.28-5.28 1.96 0 3.66 1.04 4.48 2.58l-2.22 1.3c-.4-.82-1.26-1.34-2.28-1.34-1.54 0-2.68 1.14-2.68 2.74 0 1.58 1.14 2.72 2.68 2.72 1.04 0 1.9-.5 2.3-1.32l2.24 1.28c-.86 1.56-2.56 2.6-4.52 2.6zm15.104-.28h-3l-3.64-4.54v4.54h-2.58v-14h2.58v8.4l3.44-4.4h3.08l-4.02 4.94 4.14 5.06zm2.745-3.94c.36 1.32 1.46 1.88 2.82 1.88 1 0 1.8-.42 2.24-1l2.08 1.2c-.94 1.36-2.44 2.14-4.36 2.14-3.36 0-5.48-2.3-5.48-5.28 0-2.98 2.14-5.28 5.28-5.28 2.96 0 5.06 2.34 5.06 5.28 0 .38-.04.72-.1 1.06h-7.54zm-.04-2h5.1c-.32-1.44-1.4-2.02-2.48-2.02-1.38 0-2.32.74-2.62 2.02zm14.909-1.58h-2.26v4.16c0 1.08.78 1.1 2.26 1.02v2.34c-3.62.4-4.84-.66-4.84-3.36v-4.16h-1.74V12.8h1.74v-2.02l2.58-.78v2.8h2.26v2.48z" fill="#fff"/><path opacity=".5" d="M101.66 23.6V9h.72v14.6h-.72zm13.082-10h.7v10h-.7v-2.68c-.8 1.74-2.5 2.9-4.56 2.9-2.88 0-5.2-2.28-5.2-5.22s2.32-5.22 5.2-5.22c2.06 0 3.76 1.16 4.56 2.9V13.6zm-4.54 9.54c2.54 0 4.54-1.98 4.54-4.54s-2-4.54-4.54-4.54-4.52 1.98-4.52 4.54 1.98 4.54 4.52 4.54zm15.907-9.54h.72v10h-.72v-2.22c-.72 1.66-2.14 2.44-3.78 2.44-2.32 0-3.84-1.56-3.84-3.94V13.6h.7v6.28c0 1.9 1.18 3.26 3.2 3.26 2.12 0 3.72-1.52 3.72-4.22V13.6zm8.547-.22c2.32 0 3.84 1.56 3.84 3.94v6.28h-.7v-6.28c0-1.9-1.18-3.26-3.2-3.26-2.12 0-3.72 1.52-3.72 4.22v5.32h-.72v-10h.72v2.22c.72-1.66 2.14-2.44 3.78-2.44zm11.386 10.44c-2.98 0-5.22-2.28-5.22-5.22s2.24-5.22 5.22-5.22c1.98 0 3.64 1 4.38 2.5l-.58.34c-.64-1.3-2.06-2.16-3.8-2.16-2.58 0-4.52 1.98-4.52 4.54s1.94 4.54 4.52 4.54c1.72 0 3.14-.86 3.82-2.16l.58.34c-.76 1.52-2.44 2.5-4.4 2.5zm11.407-10.44c2.32 0 3.84 1.56 3.84 3.94v6.28h-.7v-6.28c0-1.9-1.18-3.26-3.2-3.26-2.12 0-3.72 1.52-3.72 4.22v5.32h-.72v-14h.72v6.22c.72-1.66 2.14-2.44 3.78-2.44zm11.266 0c3.04 0 4.94 2.52 4.94 5.26 0 .1 0 .24-.02.34h-9.3c.16 2.5 2.04 4.16 4.48 4.16 1.7 0 3.06-.78 3.68-1.94l.62.36c-.78 1.36-2.36 2.26-4.3 2.26-3.04 0-5.2-2.2-5.2-5.22 0-2.94 2.1-5.22 5.1-5.22zm0 .68c-2.44 0-4.26 1.74-4.4 4.26h8.62c-.18-2.64-2.02-4.26-4.22-4.26zm8.215 1.8c.62-1.74 2.1-2.4 3.52-2.4v.68c-1.84 0-3.52 1.26-3.52 3.9v5.56h-.72v-10h.72v2.26z" fill="#fff"/><defs><clipPath id="a"><path fill="#fff" d="M0 0h32v32H0z"/></clipPath></defs></svg>