<svg width="36" height="36" fill="none" xmlns="http://www.w3.org/2000/svg"><rect width="36" height="36" rx="18" fill="#000"/><path d="M22.576 19.917c2.875-3.259 3.604-7.937 3.527-9.356a.551.551 0 0 0-.172-.383.646.646 0 0 0-.384-.173c-1.419-.076-6.096.633-9.356 3.528l-1.035-.383a2.918 2.918 0 0 0-3.22.843l-1.803 2.128c-.25.307-.134.767.23.901l2.3.844a27.868 27.868 0 0 0-1.341 2.492c-.173.403-.096.863.21 1.189l3.03 3.03c.306.306.786.402 1.188.21.576-.268 1.477-.71 2.493-1.342l.843 2.3a.563.563 0 0 0 .901.23l2.11-1.801a2.918 2.918 0 0 0 .843-3.221l-.364-1.036zm-1.247-2.569a1.828 1.828 0 0 1-2.607 0 1.828 1.828 0 0 1 0-2.607 1.829 1.829 0 0 1 2.607 0 1.829 1.829 0 0 1 0 2.607z" fill="#F46F51"/></svg>